HIERARCHY
ROOT SpineBase
{
  OFFSET 0.000000 0.000000 0.000000
  CHANNELS 6 Xposition Yposition Zposition Zrotation Xrotation Yrotation
  JOINT SpineMid
  {
    OFFSET 0.000000 28.429871 0.000000
    CHANNELS 3 Zrotation Xrotation Yrotation
    JOINT SpineShoulder
    {
      OFFSET 0.091917 21.143610 -0.802623
      CHANNELS 3 Zrotation Xrotation Yrotation
      JOINT Neck
      {
        OFFSET 0.054372 7.001845 -0.594592
        CHANNELS 3 Zrotation Xrotation Yrotation
        JOINT Head
        {
          OFFSET -1.192583 14.501615 -1.846528
          CHANNELS 3 Zrotation Xrotation Yrotation
          End Site
          {
            OFFSET 0 0 0
          }
        }
      }
      JOINT ShoulderLeft
      {
        OFFSET -16.391588 -3.078900 -3.620608
        CHANNELS 3 Zrotation Xrotation Yrotation
        JOINT ElbowLeft
        {
          OFFSET -1.017060 -21.648131 -2.567707
          CHANNELS 3 Zrotation Xrotation Yrotation
          JOINT WristLeft
          {
            OFFSET 9.444515 -18.516161 -7.747098
            CHANNELS 3 Zrotation Xrotation Yrotation
            JOINT HandLeft
            {
              OFFSET 3.562125 -3.647346 -0.849009
              CHANNELS 3 Zrotation Xrotation Yrotation
              JOINT HandTipLeft
              {
                OFFSET 3.558679 -6.597668 -3.205778
                CHANNELS 3 Zrotation Xrotation Yrotation
                End Site
                {
                  OFFSET 0 0 0
                }
              }
              JOINT ThumbLeft
              {
                OFFSET 2.779112 0.728060 -1.918447
                CHANNELS 3 Zrotation Xrotation Yrotation
                End Site
                {
                  OFFSET 0 0 0
                }
              }
            }
          }
        }
      }
      JOINT ShoulderRight
      {
        OFFSET 16.863043 -2.700822 0.135777
        CHANNELS 3 Zrotation Xrotation Yrotation
        JOINT ElbowRight
        {
          OFFSET 3.083435 -26.409689 -0.343409
          CHANNELS 3 Zrotation Xrotation Yrotation
          JOINT WristRight
          {
            OFFSET 0.763687 -18.985085 -8.187717
            CHANNELS 3 Zrotation Xrotation Yrotation
            JOINT HandRight
            {
              OFFSET -1.165594 -2.188407 -2.816306
              CHANNELS 3 Zrotation Xrotation Yrotation
              JOINT HandTipRight
              {
                OFFSET 1.286589 -7.445250 -4.680316
                CHANNELS 3 Zrotation Xrotation Yrotation
                End Site
                {
                  OFFSET 0 0 0
                }
              }
              JOINT ThumbRight
              {
                OFFSET -1.012884 0.518588 -3.971100
                CHANNELS 3 Zrotation Xrotation Yrotation
                End Site
                {
                  OFFSET 0 0 0
                }
              }
            }
          }
        }
      }
    }
  }
  JOINT HipLeft
  {
    OFFSET -6.883695 0.227710 -4.005569
    CHANNELS 3 Zrotation Xrotation Yrotation
    JOINT KneeLeft
    {
      OFFSET -4.307150 -29.091054 3.573430
      CHANNELS 3 Zrotation Xrotation Yrotation
      JOINT AnkleLeft
      {
        OFFSET -0.850175 -30.476775 6.982635
        CHANNELS 3 Zrotation Xrotation Yrotation
        JOINT FootLeft
        {
          OFFSET -2.359920 -8.058332 -4.929678
          CHANNELS 3 Zrotation Xrotation Yrotation
          End Site
          {
            OFFSET 0 0 0
          }
        }
      }
    }
  }
  JOINT HipRight
  {
    OFFSET 7.234791 1.244621 -2.961757
    CHANNELS 3 Zrotation Xrotation Yrotation
    JOINT KneeRight
    {
      OFFSET 6.430386 -22.703081 -17.691919
      CHANNELS 3 Zrotation Xrotation Yrotation
      JOINT AnkleRight
      {
        OFFSET -2.610401 -28.760561 23.051207
        CHANNELS 3 Zrotation Xrotation Yrotation
        JOINT FootRight
        {
          OFFSET 1.308896 -3.784269 -13.201205
          CHANNELS 3 Zrotation Xrotation Yrotation
          End Site
          {
            OFFSET 0 0 0
          }
        }
      }
    }
  }
}
MOTION
Frames: 14
Frame Time: 0.033333
-8.621665 72.852808 368.528775 -8.422397 -10.706460 -28.671335 -2.394154 -1.091238 27.746005 -0.111621 -0.940547 -0.558404 8.419659 32.801660 2.232813 0.000000 0.000000 0.000000 78.383826 -44.200302 18.585003 35.556829 39.199824 -75.939791 12.028214 -3.453663 14.901514 1.395443 7.543232 -22.848480 0.000000 0.000000 0.000000 0.000000 0.000000 0.000000 144.101861 53.045818 -92.538389 120.118018 14.939189 105.282677 178.666925 51.080299 18.344040 -38.276690 23.039098 47.954783 0.000000 0.000000 0.000000 0.000000 0.000000 0.000000 -25.600073 14.589983 29.467030 4.155731 -5.203183 -0.133030 76.641503 -5.490975 -28.526047 0.000000 0.000000 0.000000 11.586432 -38.213123 27.723319 91.461330 79.809910 -73.525594 -2.128936 -56.376977 -47.881115 0.000000 0.000000 0.000000
-8.499513 73.132360 369.896556 -9.663873 -13.077489 -31.437459 -2.211550 -1.242141 30.198148 0.394706 -0.978081 -0.621210 7.428703 33.853319 2.358405 0.000000 0.000000 0.000000 59.877209 -40.295476 9.283380 51.350095 32.378573 -79.301177 4.408869 -11.016421 16.816605 11.326390 13.715368 -26.157360 0.000000 0.000000 0.000000 0.000000 0.000000 0.000000 145.089072 60.951614 -102.010967 127.454149 13.896648 90.210279 -107.161487 52.433889 -48.646196 -60.138841 8.251965 42.827772 0.000000 0.000000 0.000000 0.000000 0.000000 0.000000 -26.458176 16.722673 33.154255 3.319419 -4.870034 -0.220665 75.784123 -5.444426 -27.013646 0.000000 0.000000 0.000000 11.846264 -33.870608 30.757715 87.873343 78.495766 -69.319262 -5.465499 -58.913767 -48.727464 0.000000 0.000000 0.000000
-8.363144 72.504925 371.580607 -10.880012 -15.438232 -32.917037 -1.905169 -1.115761 31.303174 0.455513 -0.932094 -0.663125 6.042599 32.604163 2.423649 0.000000 0.000000 0.000000 53.157812 -34.892261 3.952173 54.220494 30.667236 -75.875143 1.024582 -5.292703 17.043530 12.909454 5.697218 -24.907107 0.000000 0.000000 0.000000 0.000000 0.000000 0.000000 148.859237 61.387373 -107.392906 114.384818 3.572006 64.363106 -64.385024 4.935308 -72.640405 -82.350739 5.159362 37.854778 0.000000 0.000000 0.000000 0.000000 0.000000 0.000000 -27.679886 19.158384 35.668714 3.040127 -4.416131 -0.135279 74.094727 -4.534101 -25.634913 0.000000 0.000000 0.000000 10.724234 -29.911240 32.565845 84.375186 76.696166 -65.090394 -7.589143 -59.995131 -47.293443 0.000000 0.000000 0.000000
-8.375947 71.774459 372.915516 -11.636871 -17.625344 -31.497608 -1.352605 -1.007332 29.500951 0.492013 -0.935435 -0.673537 -0.570161 31.315412 4.001173 0.000000 0.000000 0.000000 51.875190 -29.029812 -0.257758 50.017554 26.899020 -69.625680 -7.406346 9.002201 18.435189 12.280621 -13.105771 -21.196257 0.000000 0.000000 0.000000 0.000000 0.000000 0.000000 148.753996 55.942667 -104.455037 87.777777 -9.677258 40.452770 -35.408753 -30.695544 -63.951718 -84.622848 8.525618 39.463532 0.000000 0.000000 0.000000 0.000000 0.000000 0.000000 -28.748103 22.677775 35.537503 2.825271 -4.622906 -0.112775 69.299719 -4.273964 -21.614434 0.000000 0.000000 0.000000 8.329575 -27.615181 31.144043 82.486015 75.270966 -62.555187 -14.635304 -63.717803 -46.726268 0.000000 0.000000 0.000000
-9.226882 69.386683 374.330323 -13.049675 -19.375162 -31.819103 -0.482768 -0.710967 29.247698 0.310697 -0.728303 -0.658621 -5.783379 29.421373 5.244161 0.000000 0.000000 0.000000 58.569410 -18.864518 -6.908988 34.292215 20.301154 -53.163218 -20.815922 26.166844 23.431050 15.789643 -33.005513 -17.776771 0.000000 0.000000 0.000000 0.000000 0.000000 0.000000 145.877052 45.405584 -93.104359 50.206980 -20.172276 10.490517 -9.641692 -41.349492 -50.163107 -68.841066 16.737377 43.948681 0.000000 0.000000 0.000000 0.000000 0.000000 0.000000 -28.695704 25.143852 36.608916 2.434414 -3.812362 -0.035759 67.586904 -3.287640 -20.740618 0.000000 0.000000 0.000000 7.787617 -24.584372 31.106829 81.980044 74.658665 -61.766433 -15.026789 -63.526099 -41.671099 0.000000 0.000000 0.000000
-10.307129 66.757871 375.697715 -14.533114 -20.985017 -28.360221 0.120776 -0.026630 25.192884 0.109366 -0.558099 -0.643253 -9.107154 26.720389 5.660699 0.000000 0.000000 0.000000 69.029345 -5.187036 -17.453309 17.612545 9.049800 -32.401094 -24.005836 34.032141 26.282961 14.690185 -41.172557 -17.174496 0.000000 0.000000 0.000000 0.000000 0.000000 0.000000 144.285976 33.460629 -80.933139 16.609683 -24.349680 -13.058639 2.443623 -41.743220 -41.621138 -52.982556 24.898507 46.004582 0.000000 0.000000 0.000000 0.000000 0.000000 0.000000 -27.426442 29.987571 34.123350 2.529192 -4.719332 0.086112 66.533333 1.554083 -23.918685 0.000000 0.000000 0.000000 6.079029 -22.533592 26.809102 85.911118 74.671063 -65.375463 -10.657294 -60.102997 -36.147192 0.000000 0.000000 0.000000
-11.545203 63.335689 376.818301 -15.750429 -21.939527 -25.936348 0.731717 0.824126 22.287397 -0.053238 -0.161590 -0.589704 -11.528403 22.549940 5.185428 0.000000 0.000000 0.000000 84.043881 9.387414 -32.744222 5.708443 -11.220848 -12.012663 -23.206890 38.428531 27.107672 13.397870 -41.684193 -17.879581 0.000000 0.000000 0.000000 0.000000 0.000000 0.000000 139.412109 19.445351 -61.803006 -13.361402 -12.898302 -36.681302 4.497647 -37.039097 -41.041844 -36.296010 22.643154 46.159433 0.000000 0.000000 0.000000 0.000000 0.000000 0.000000 -25.407109 33.039774 31.847168 3.532819 -4.177817 0.729053 67.861720 8.959306 -31.276114 0.000000 0.000000 0.000000 5.472182 -21.406775 23.534576 92.126717 75.178956 -71.514583 -2.282132 -49.517703 -28.374538 0.000000 0.000000 0.000000
-12.850835 59.874855 377.690619 -16.981661 -22.544186 -26.102218 0.737235 1.147612 22.092567 -0.211880 0.114834 -0.584814 -9.839202 19.627494 4.003238 0.000000 0.000000 0.000000 97.131891 21.214984 -48.387590 4.586949 -31.080552 3.477124 -17.032410 40.489187 24.602546 9.457793 -40.185546 -19.088377 0.000000 0.000000 0.000000 0.000000 0.000000 0.000000 137.044975 1.179902 -38.835069 -31.122757 11.293089 -51.980406 -1.345655 -33.112545 -40.673970 -22.022107 24.483640 43.248284 0.000000 0.000000 0.000000 0.000000 0.000000 0.000000 -23.478465 34.179760 31.579034 3.905410 -2.611182 1.159629 70.850221 19.291341 -41.609315 0.000000 0.000000 0.000000 6.159001 -20.028181 22.957383 96.780992 75.720379 -76.402266 5.197803 -29.018822 -21.386402 0.000000 0.000000 0.000000
-13.997908 56.773357 378.133863 -17.797493 -22.749716 -25.305751 0.740698 1.023172 21.066784 -0.056130 0.149423 -0.633518 -7.528733 19.066620 3.338122 0.000000 0.000000 0.000000 108.196877 28.830929 -62.435348 7.745443 -47.129649 16.058870 -7.503298 32.639995 17.673919 6.979300 -29.034870 -18.767491 0.000000 0.000000 0.000000 0.000000 0.000000 0.000000 132.672364 -11.785298 -21.598247 -32.768476 30.747650 -58.009519 -14.434377 -27.040526 -41.228174 -10.020453 21.861416 39.816534 0.000000 0.000000 0.000000 0.000000 0.000000 0.000000 -21.745246 34.973851 30.334954 4.625903 -1.519438 1.585248 76.020979 28.554123 -53.161075 0.000000 0.000000 0.000000 6.771043 -19.924843 21.048538 104.362698 76.605011 -84.384361 9.254522 -4.482613 -17.206173 0.000000 0.000000 0.000000
-15.040551 54.506750 378.192681 -18.550824 -22.676527 -22.046954 0.669585 0.518916 17.629741 0.217399 0.107395 -0.715103 -2.979449 20.720077 2.705385 0.000000 0.000000 0.000000 117.908392 32.889378 -74.191495 12.872528 -59.247490 27.036623 -1.627757 21.353249 11.878274 8.521026 -12.187886 -17.151988 0.000000 0.000000 0.000000 0.000000 0.000000 0.000000 126.114192 -19.338333 -12.161479 -29.012932 44.503331 -60.412351 -17.352793 -25.064380 -39.252497 -0.417555 18.507488 36.650707 0.000000 0.000000 0.000000 0.000000 0.000000 0.000000 -18.447762 36.791218 26.265985 5.100551 -1.466201 1.874911 88.486154 39.105615 -73.314513 0.000000 0.000000 0.000000 7.153400 -21.291036 15.556579 118.192051 77.791367 -98.802373 10.128564 12.659902 -14.635600 0.000000 0.000000 0.000000
-15.408773 53.478680 378.225607 -18.935632 -23.211965 -22.253048 0.163422 -0.080099 17.704143 0.523294 -0.145238 -0.834332 2.724868 23.620983 1.781556 0.000000 0.000000 0.000000 124.244177 32.912028 -81.075673 9.921556 -70.590126 30.114372 5.818570 15.560191 5.564055 3.832445 -7.406368 -13.487396 0.000000 0.000000 0.000000 0.000000 0.000000 0.000000 116.776150 -20.212781 -12.336684 -23.437528 45.927724 -57.555423 -17.745395 -25.565073 -36.699000 0.527113 14.488184 35.162139 0.000000 0.000000 0.000000 0.000000 0.000000 0.000000 -19.200304 36.809429 26.780973 6.878014 -0.854092 2.514033 90.137531 40.914908 -77.451317 0.000000 0.000000 0.000000 7.829727 -20.833550 14.633351 124.758543 78.300568 -105.794909 11.355890 20.991421 -14.629465 0.000000 0.000000 0.000000
-15.091254 52.422910 378.500545 -18.752275 -23.892295 -21.037428 0.159103 -0.205607 16.410613 0.997353 -0.158062 -0.889174 5.845242 24.318308 0.765186 0.000000 0.000000 0.000000 127.450952 33.957149 -86.577274 21.645422 -78.320284 43.237420 1.606899 11.451906 4.889781 12.735334 -0.260457 -14.153649 0.000000 0.000000 0.000000 0.000000 0.000000 0.000000 103.514196 -10.973484 -19.298250 -18.289348 33.955776 -46.818714 -14.268274 -25.996081 -34.472558 -7.555164 9.249383 36.924642 0.000000 0.000000 0.000000 0.000000 0.000000 0.000000 -20.747918 37.222560 26.348187 8.757453 -0.766047 3.117544 95.685532 41.707631 -84.628558 0.000000 0.000000 0.000000 6.727878 -20.492810 13.706614 124.500009 77.832417 -105.202974 9.253169 24.922095 -11.821124 0.000000 0.000000 0.000000
-14.431822 52.042428 378.721853 -18.062569 -24.492789 -23.543817 0.249781 -0.294011 18.972526 1.148093 -0.064821 -0.864852 6.862258 23.853442 0.143440 0.000000 0.000000 0.000000 126.508611 34.984702 -87.553992 27.171995 -81.959947 48.929654 -1.166494 8.949244 4.150262 16.052143 2.164679 -13.764260 0.000000 0.000000 0.000000 0.000000 0.000000 0.000000 89.451100 -2.081275 -22.244560 -6.633316 27.568395 -42.681235 -13.738347 -27.442670 -31.411192 -8.508984 6.910318 35.914671 0.000000 0.000000 0.000000 0.000000 0.000000 0.000000 -25.395897 35.471030 30.286425 10.508922 -0.838918 3.551878 88.283361 38.148092 -74.285212 0.000000 0.000000 0.000000 6.367096 -18.741149 17.594865 114.795299 77.587287 -95.197022 8.061827 24.791880 -10.583972 0.000000 0.000000 0.000000
-13.687393 52.330072 378.861656 -17.042831 -25.322067 -29.305166 0.495037 -0.469128 24.818468 1.152387 -0.027240 -0.813597 4.595415 24.332081 0.586997 0.000000 0.000000 0.000000 117.856344 33.463198 -79.102592 -7.799200 -80.316978 14.551364 -6.218357 9.789734 5.972127 17.261659 0.332603 -12.690321 0.000000 0.000000 0.000000 0.000000 0.000000 0.000000 74.764076 8.071727 -23.320593 4.433750 19.052533 -36.350725 -11.256324 -28.937926 -27.793972 -11.458190 7.070284 34.379224 0.000000 0.000000 0.000000 0.000000 0.000000 0.000000 -31.713768 31.315186 37.229594 11.831547 -0.481260 3.749218 81.088142 33.623169 -63.379824 0.000000 0.000000 0.000000 6.566059 -16.470600 24.831545 102.312349 77.917521 -83.954364 4.683139 23.508736 -5.503211 0.000000 0.000000 0.000000
